<mxfile host="Electron" agent="Mozilla/5.0 (Windows NT 10.0; Win64; x64) AppleWebKit/537.36 (KHTML, like Gecko) draw.io/24.7.5 Chrome/126.0.6478.183 Electron/31.3.0 Safari/537.36" version="24.7.5">
  <diagram name="Counter" id="JUNGyigB4gi4Dt59CXMW">
    <mxGraphModel dx="2606" dy="1686" grid="0" gridSize="10" guides="1" tooltips="1" connect="1" arrows="1" fold="1" page="0" pageScale="1" pageWidth="850" pageHeight="1100" math="0" shadow="0">
      <root>
        <mxCell id="0" />
        <mxCell id="1" parent="0" />
        <mxCell id="6v0HzGc5-acVFd1LPyg0-1" value="" style="rounded=0;whiteSpace=wrap;html=1;strokeWidth=2;" vertex="1" parent="1">
          <mxGeometry x="-260" y="-80" width="670" height="380" as="geometry" />
        </mxCell>
        <mxCell id="6v0HzGc5-acVFd1LPyg0-2" value="" style="whiteSpace=wrap;html=1;aspect=fixed;strokeWidth=2;" vertex="1" parent="1">
          <mxGeometry x="240" y="-120" width="40" height="40" as="geometry" />
        </mxCell>
        <mxCell id="6v0HzGc5-acVFd1LPyg0-3" value="" style="endArrow=none;html=1;rounded=0;entryX=0.5;entryY=0;entryDx=0;entryDy=0;exitX=0;exitY=1;exitDx=0;exitDy=0;strokeWidth=2;" edge="1" source="6v0HzGc5-acVFd1LPyg0-2" target="6v0HzGc5-acVFd1LPyg0-2" parent="1">
          <mxGeometry width="50" height="50" relative="1" as="geometry">
            <mxPoint x="280" y="-54" as="sourcePoint" />
            <mxPoint x="330" y="-104" as="targetPoint" />
          </mxGeometry>
        </mxCell>
        <mxCell id="6v0HzGc5-acVFd1LPyg0-4" value="" style="endArrow=none;html=1;rounded=0;entryX=0.5;entryY=0;entryDx=0;entryDy=0;exitX=1;exitY=1;exitDx=0;exitDy=0;strokeWidth=2;" edge="1" source="6v0HzGc5-acVFd1LPyg0-2" target="6v0HzGc5-acVFd1LPyg0-2" parent="1">
          <mxGeometry width="50" height="50" relative="1" as="geometry">
            <mxPoint x="368" y="-48" as="sourcePoint" />
            <mxPoint x="434" y="-72" as="targetPoint" />
          </mxGeometry>
        </mxCell>
        <mxCell id="6v0HzGc5-acVFd1LPyg0-5" value="&lt;font style=&quot;font-size: 22px;&quot;&gt;Register Interface&lt;/font&gt;" style="rounded=0;whiteSpace=wrap;html=1;strokeWidth=2;" vertex="1" parent="1">
          <mxGeometry x="165" y="20" width="190" height="90" as="geometry" />
        </mxCell>
        <mxCell id="6v0HzGc5-acVFd1LPyg0-6" value="" style="shape=flexArrow;endArrow=classic;startArrow=classic;html=1;rounded=0;strokeWidth=2;" edge="1" parent="1">
          <mxGeometry width="100" height="100" relative="1" as="geometry">
            <mxPoint x="260" y="20" as="sourcePoint" />
            <mxPoint x="260" y="-80" as="targetPoint" />
          </mxGeometry>
        </mxCell>
        <mxCell id="6v0HzGc5-acVFd1LPyg0-7" value="&lt;font style=&quot;font-size: 22px;&quot;&gt;Target Socket&lt;/font&gt;" style="text;html=1;align=center;verticalAlign=middle;resizable=0;points=[];autosize=1;strokeColor=none;fillColor=none;" vertex="1" parent="1">
          <mxGeometry x="280" y="-120" width="160" height="40" as="geometry" />
        </mxCell>
        <mxCell id="6v0HzGc5-acVFd1LPyg0-8" value="&lt;font style=&quot;font-size: 22px;&quot;&gt;Counter (RTL level design)&lt;/font&gt;" style="rounded=0;whiteSpace=wrap;html=1;strokeWidth=2;" vertex="1" parent="1">
          <mxGeometry x="-200" y="440.2" width="610" height="140" as="geometry" />
        </mxCell>
        <mxCell id="6v0HzGc5-acVFd1LPyg0-9" value="&lt;font style=&quot;font-size: 22px;&quot;&gt;Counter wrapper&lt;/font&gt;" style="text;html=1;align=center;verticalAlign=middle;resizable=0;points=[];autosize=1;strokeColor=none;fillColor=none;" vertex="1" parent="1">
          <mxGeometry x="-245" y="-70" width="190" height="40" as="geometry" />
        </mxCell>
        <mxCell id="6v0HzGc5-acVFd1LPyg0-10" value="" style="endArrow=classic;html=1;rounded=0;exitX=0.25;exitY=1;exitDx=0;exitDy=0;entryX=0.682;entryY=0.011;entryDx=0;entryDy=0;entryPerimeter=0;strokeWidth=3;" edge="1" parent="1" source="6v0HzGc5-acVFd1LPyg0-5" target="6v0HzGc5-acVFd1LPyg0-8">
          <mxGeometry width="50" height="50" relative="1" as="geometry">
            <mxPoint x="220" y="510" as="sourcePoint" />
            <mxPoint x="270" y="460" as="targetPoint" />
          </mxGeometry>
        </mxCell>
        <mxCell id="6v0HzGc5-acVFd1LPyg0-12" value="&lt;font style=&quot;font-size: 18px;&quot;&gt;din&amp;lt;8&amp;gt;&lt;/font&gt;" style="edgeLabel;html=1;align=center;verticalAlign=middle;resizable=0;points=[];" vertex="1" connectable="0" parent="6v0HzGc5-acVFd1LPyg0-10">
          <mxGeometry x="0.6095" y="1" relative="1" as="geometry">
            <mxPoint x="-36" y="3" as="offset" />
          </mxGeometry>
        </mxCell>
        <mxCell id="6v0HzGc5-acVFd1LPyg0-13" value="" style="endArrow=classic;html=1;rounded=0;exitX=0.835;exitY=0.021;exitDx=0;exitDy=0;exitPerimeter=0;strokeWidth=3;entryX=0.5;entryY=1;entryDx=0;entryDy=0;" edge="1" parent="1" source="6v0HzGc5-acVFd1LPyg0-8" target="6v0HzGc5-acVFd1LPyg0-16">
          <mxGeometry width="50" height="50" relative="1" as="geometry">
            <mxPoint x="310" y="530" as="sourcePoint" />
            <mxPoint x="309" y="230" as="targetPoint" />
          </mxGeometry>
        </mxCell>
        <mxCell id="6v0HzGc5-acVFd1LPyg0-14" value="&lt;font style=&quot;font-size: 18px;&quot;&gt;dout&amp;lt;8&amp;gt;&lt;/font&gt;" style="edgeLabel;html=1;align=center;verticalAlign=middle;resizable=0;points=[];" vertex="1" connectable="0" parent="6v0HzGc5-acVFd1LPyg0-13">
          <mxGeometry x="-0.634" y="-2" relative="1" as="geometry">
            <mxPoint x="-41" y="-22" as="offset" />
          </mxGeometry>
        </mxCell>
        <mxCell id="6v0HzGc5-acVFd1LPyg0-15" value="&lt;font style=&quot;font-size: 22px;&quot;&gt;Input handling&lt;/font&gt;" style="rounded=0;whiteSpace=wrap;html=1;strokeWidth=2;" vertex="1" parent="1">
          <mxGeometry x="-70" y="27.5" width="190" height="75" as="geometry" />
        </mxCell>
        <mxCell id="6v0HzGc5-acVFd1LPyg0-16" value="&lt;font style=&quot;font-size: 22px;&quot;&gt;Output handling&lt;/font&gt;" style="rounded=0;whiteSpace=wrap;html=1;strokeWidth=2;" vertex="1" parent="1">
          <mxGeometry x="250" y="160" width="120" height="60" as="geometry" />
        </mxCell>
        <mxCell id="6v0HzGc5-acVFd1LPyg0-17" value="" style="endArrow=classic;html=1;rounded=0;exitX=0.5;exitY=0;exitDx=0;exitDy=0;strokeWidth=3;" edge="1" parent="1" source="6v0HzGc5-acVFd1LPyg0-16">
          <mxGeometry width="50" height="50" relative="1" as="geometry">
            <mxPoint x="340" y="150" as="sourcePoint" />
            <mxPoint x="310" y="110" as="targetPoint" />
          </mxGeometry>
        </mxCell>
        <mxCell id="6v0HzGc5-acVFd1LPyg0-18" value="" style="endArrow=classic;html=1;rounded=0;entryX=0.111;entryY=-0.007;entryDx=0;entryDy=0;entryPerimeter=0;strokeWidth=2;" edge="1" parent="1">
          <mxGeometry width="50" height="50" relative="1" as="geometry">
            <mxPoint x="-20.5" y="-130" as="sourcePoint" />
            <mxPoint x="-19.409999999999854" y="26.975000000000023" as="targetPoint" />
          </mxGeometry>
        </mxCell>
        <mxCell id="6v0HzGc5-acVFd1LPyg0-27" value="&lt;font style=&quot;font-size: 18px;&quot;&gt;clk&lt;/font&gt;" style="edgeLabel;html=1;align=center;verticalAlign=middle;resizable=0;points=[];" vertex="1" connectable="0" parent="6v0HzGc5-acVFd1LPyg0-18">
          <mxGeometry x="-0.8304" y="1" relative="1" as="geometry">
            <mxPoint x="-1" y="17" as="offset" />
          </mxGeometry>
        </mxCell>
        <mxCell id="6v0HzGc5-acVFd1LPyg0-19" value="" style="endArrow=classic;html=1;rounded=0;entryX=0.111;entryY=-0.007;entryDx=0;entryDy=0;entryPerimeter=0;strokeWidth=2;" edge="1" parent="1">
          <mxGeometry width="50" height="50" relative="1" as="geometry">
            <mxPoint x="9.5" y="-129.5" as="sourcePoint" />
            <mxPoint x="10.5" y="27.5" as="targetPoint" />
          </mxGeometry>
        </mxCell>
        <mxCell id="6v0HzGc5-acVFd1LPyg0-28" value="&lt;font style=&quot;font-size: 18px;&quot;&gt;rst&lt;/font&gt;" style="edgeLabel;html=1;align=center;verticalAlign=middle;resizable=0;points=[];" vertex="1" connectable="0" parent="6v0HzGc5-acVFd1LPyg0-19">
          <mxGeometry x="-0.9065" y="-2" relative="1" as="geometry">
            <mxPoint x="2" y="22" as="offset" />
          </mxGeometry>
        </mxCell>
        <mxCell id="6v0HzGc5-acVFd1LPyg0-20" value="" style="endArrow=classic;html=1;rounded=0;entryX=0.111;entryY=-0.007;entryDx=0;entryDy=0;entryPerimeter=0;strokeWidth=2;" edge="1" parent="1">
          <mxGeometry width="50" height="50" relative="1" as="geometry">
            <mxPoint x="39.5" y="-129.5" as="sourcePoint" />
            <mxPoint x="40.5" y="27.5" as="targetPoint" />
          </mxGeometry>
        </mxCell>
        <mxCell id="6v0HzGc5-acVFd1LPyg0-29" value="&lt;font style=&quot;font-size: 18px;&quot;&gt;load&lt;/font&gt;" style="edgeLabel;html=1;align=center;verticalAlign=middle;resizable=0;points=[];" vertex="1" connectable="0" parent="6v0HzGc5-acVFd1LPyg0-20">
          <mxGeometry x="-0.8525" y="-1" relative="1" as="geometry">
            <mxPoint x="1" y="18" as="offset" />
          </mxGeometry>
        </mxCell>
        <mxCell id="6v0HzGc5-acVFd1LPyg0-21" value="" style="endArrow=classic;html=1;rounded=0;entryX=0.111;entryY=-0.007;entryDx=0;entryDy=0;entryPerimeter=0;strokeWidth=2;" edge="1" parent="1">
          <mxGeometry width="50" height="50" relative="1" as="geometry">
            <mxPoint x="69.5" y="-129.5" as="sourcePoint" />
            <mxPoint x="70.5" y="27.5" as="targetPoint" />
          </mxGeometry>
        </mxCell>
        <mxCell id="6v0HzGc5-acVFd1LPyg0-30" value="&lt;font style=&quot;font-size: 18px;&quot;&gt;start&lt;/font&gt;" style="edgeLabel;html=1;align=center;verticalAlign=middle;resizable=0;points=[];" vertex="1" connectable="0" parent="6v0HzGc5-acVFd1LPyg0-21">
          <mxGeometry x="-0.8446" y="1" relative="1" as="geometry">
            <mxPoint x="9" y="17" as="offset" />
          </mxGeometry>
        </mxCell>
        <mxCell id="6v0HzGc5-acVFd1LPyg0-22" value="" style="endArrow=classic;html=1;rounded=0;exitX=0.273;exitY=0.978;exitDx=0;exitDy=0;exitPerimeter=0;entryX=0.303;entryY=-0.004;entryDx=0;entryDy=0;entryPerimeter=0;strokeWidth=2;" edge="1" parent="1" source="6v0HzGc5-acVFd1LPyg0-15" target="6v0HzGc5-acVFd1LPyg0-8">
          <mxGeometry width="50" height="50" relative="1" as="geometry">
            <mxPoint x="-10" y="400" as="sourcePoint" />
            <mxPoint x="40" y="350" as="targetPoint" />
          </mxGeometry>
        </mxCell>
        <mxCell id="6v0HzGc5-acVFd1LPyg0-31" value="&lt;font style=&quot;font-size: 18px;&quot;&gt;clk&lt;/font&gt;" style="edgeLabel;html=1;align=center;verticalAlign=middle;resizable=0;points=[];" vertex="1" connectable="0" parent="6v0HzGc5-acVFd1LPyg0-22">
          <mxGeometry x="0.7092" y="-2" relative="1" as="geometry">
            <mxPoint y="-20" as="offset" />
          </mxGeometry>
        </mxCell>
        <mxCell id="6v0HzGc5-acVFd1LPyg0-23" value="" style="endArrow=classic;html=1;rounded=0;exitX=0.273;exitY=0.978;exitDx=0;exitDy=0;exitPerimeter=0;entryX=0.303;entryY=-0.004;entryDx=0;entryDy=0;entryPerimeter=0;strokeWidth=2;" edge="1" parent="1">
          <mxGeometry width="50" height="50" relative="1" as="geometry">
            <mxPoint x="10" y="101.2" as="sourcePoint" />
            <mxPoint x="13" y="440.2" as="targetPoint" />
          </mxGeometry>
        </mxCell>
        <mxCell id="6v0HzGc5-acVFd1LPyg0-32" value="&lt;font style=&quot;font-size: 18px;&quot;&gt;rst&lt;/font&gt;" style="edgeLabel;html=1;align=center;verticalAlign=middle;resizable=0;points=[];" vertex="1" connectable="0" parent="6v0HzGc5-acVFd1LPyg0-23">
          <mxGeometry x="0.6957" y="-4" relative="1" as="geometry">
            <mxPoint as="offset" />
          </mxGeometry>
        </mxCell>
        <mxCell id="6v0HzGc5-acVFd1LPyg0-24" value="" style="endArrow=classic;html=1;rounded=0;exitX=0.273;exitY=0.978;exitDx=0;exitDy=0;exitPerimeter=0;entryX=0.303;entryY=-0.004;entryDx=0;entryDy=0;entryPerimeter=0;strokeWidth=2;" edge="1" parent="1">
          <mxGeometry width="50" height="50" relative="1" as="geometry">
            <mxPoint x="40" y="101.2" as="sourcePoint" />
            <mxPoint x="43" y="440.2" as="targetPoint" />
          </mxGeometry>
        </mxCell>
        <mxCell id="6v0HzGc5-acVFd1LPyg0-33" value="&lt;font style=&quot;font-size: 18px;&quot;&gt;load&lt;/font&gt;" style="edgeLabel;html=1;align=center;verticalAlign=middle;resizable=0;points=[];" vertex="1" connectable="0" parent="6v0HzGc5-acVFd1LPyg0-24">
          <mxGeometry x="0.6804" y="-1" relative="1" as="geometry">
            <mxPoint y="14" as="offset" />
          </mxGeometry>
        </mxCell>
        <mxCell id="6v0HzGc5-acVFd1LPyg0-25" value="" style="endArrow=classic;html=1;rounded=0;exitX=0.273;exitY=0.978;exitDx=0;exitDy=0;exitPerimeter=0;entryX=0.303;entryY=-0.004;entryDx=0;entryDy=0;entryPerimeter=0;strokeWidth=2;" edge="1" parent="1">
          <mxGeometry width="50" height="50" relative="1" as="geometry">
            <mxPoint x="73.5" y="101.2" as="sourcePoint" />
            <mxPoint x="76.5" y="440.2" as="targetPoint" />
          </mxGeometry>
        </mxCell>
        <mxCell id="6v0HzGc5-acVFd1LPyg0-34" value="&lt;font style=&quot;font-size: 18px;&quot;&gt;start&lt;/font&gt;" style="edgeLabel;html=1;align=center;verticalAlign=middle;resizable=0;points=[];" vertex="1" connectable="0" parent="6v0HzGc5-acVFd1LPyg0-25">
          <mxGeometry x="0.6857" y="2" relative="1" as="geometry">
            <mxPoint x="-3" as="offset" />
          </mxGeometry>
        </mxCell>
        <mxCell id="6v0HzGc5-acVFd1LPyg0-35" value="" style="shape=flexArrow;endArrow=classic;startArrow=classic;html=1;rounded=0;width=30;strokeWidth=2;" edge="1" parent="1">
          <mxGeometry width="100" height="100" relative="1" as="geometry">
            <mxPoint x="-380" y="-320" as="sourcePoint" />
            <mxPoint x="530" y="-320" as="targetPoint" />
          </mxGeometry>
        </mxCell>
        <mxCell id="6v0HzGc5-acVFd1LPyg0-36" value="&lt;font style=&quot;font-size: 22px;&quot;&gt;Bus MMIO&lt;/font&gt;" style="edgeLabel;html=1;align=center;verticalAlign=middle;resizable=0;points=[];" vertex="1" connectable="0" parent="6v0HzGc5-acVFd1LPyg0-35">
          <mxGeometry x="0.1665" relative="1" as="geometry">
            <mxPoint x="-81" y="-50" as="offset" />
          </mxGeometry>
        </mxCell>
        <mxCell id="6v0HzGc5-acVFd1LPyg0-37" value="" style="shape=flexArrow;endArrow=classic;startArrow=classic;html=1;rounded=0;strokeWidth=2;" edge="1" parent="1">
          <mxGeometry width="100" height="100" relative="1" as="geometry">
            <mxPoint x="260" y="-120" as="sourcePoint" />
            <mxPoint x="260" y="-300" as="targetPoint" />
          </mxGeometry>
        </mxCell>
        <mxCell id="6v0HzGc5-acVFd1LPyg0-38" value="Dummy salve" style="rounded=0;whiteSpace=wrap;html=1;strokeWidth=2;" vertex="1" parent="1">
          <mxGeometry x="-55" y="-190" width="160" height="60" as="geometry" />
        </mxCell>
        <mxCell id="6v0HzGc5-acVFd1LPyg0-39" value="" style="whiteSpace=wrap;html=1;aspect=fixed;strokeWidth=2;" vertex="1" parent="1">
          <mxGeometry x="5" y="-230" width="40" height="40" as="geometry" />
        </mxCell>
        <mxCell id="6v0HzGc5-acVFd1LPyg0-40" value="" style="endArrow=none;html=1;rounded=0;entryX=0.5;entryY=0;entryDx=0;entryDy=0;exitX=0;exitY=1;exitDx=0;exitDy=0;strokeWidth=2;" edge="1" source="6v0HzGc5-acVFd1LPyg0-39" target="6v0HzGc5-acVFd1LPyg0-39" parent="1">
          <mxGeometry width="50" height="50" relative="1" as="geometry">
            <mxPoint x="45" y="-164" as="sourcePoint" />
            <mxPoint x="95" y="-214" as="targetPoint" />
          </mxGeometry>
        </mxCell>
        <mxCell id="6v0HzGc5-acVFd1LPyg0-41" value="" style="endArrow=none;html=1;rounded=0;entryX=0.5;entryY=0;entryDx=0;entryDy=0;exitX=1;exitY=1;exitDx=0;exitDy=0;strokeWidth=2;" edge="1" source="6v0HzGc5-acVFd1LPyg0-39" target="6v0HzGc5-acVFd1LPyg0-39" parent="1">
          <mxGeometry width="50" height="50" relative="1" as="geometry">
            <mxPoint x="133" y="-158" as="sourcePoint" />
            <mxPoint x="199" y="-182" as="targetPoint" />
          </mxGeometry>
        </mxCell>
        <mxCell id="6v0HzGc5-acVFd1LPyg0-42" value="" style="shape=flexArrow;endArrow=classic;startArrow=classic;html=1;rounded=0;exitX=0.5;exitY=0;exitDx=0;exitDy=0;strokeWidth=2;" edge="1" parent="1" source="6v0HzGc5-acVFd1LPyg0-39">
          <mxGeometry width="100" height="100" relative="1" as="geometry">
            <mxPoint x="70" y="-250" as="sourcePoint" />
            <mxPoint x="25" y="-300" as="targetPoint" />
          </mxGeometry>
        </mxCell>
      </root>
    </mxGraphModel>
  </diagram>
</mxfile>
